<svg xmlns="http://www.w3.org/2000/svg" xmlns:xlink="http://www.w3.org/1999/xlink" viewBox="0,0,256,256" width="100px" height="100px"><g fill="#313131" fill-rule="nonzero" stroke="none" stroke-width="1" stroke-linecap="butt" stroke-linejoin="miter" stroke-miterlimit="10" stroke-dasharray="" stroke-dashoffset="0" font-family="none" font-weight="none" font-size="none" text-anchor="none" style="mix-blend-mode: normal"><g transform="scale(10.66667,10.66667)"><path d="M12,3c-3.31,0 -6,2.47 -6,5.5c0,2.43 5.39,2.5 6,2.5c0.61,0 6,-0.07 6,-2.5c0,-3.03 -2.69,-5.5 -6,-5.5zM4.09961,7.30078c-2.63,1.01 -4.09961,2.48922 -4.09961,4.19922c0,1.831 1.631,3.22725 4,4.15625v4.34375h2v-3.71289c1.555,0.392 3.274,0.62836 5,0.69336v4.01953h2v-4.02148c1.726,-0.065 3.445,-0.29941 5,-0.69141v3.71289h2v-4.34375c2.369,-0.929 4,-2.32525 4,-4.15625c0,-1.71 -1.46961,-3.18922 -4.09961,-4.19922c0.06,0.39 0.09961,0.78922 0.09961,1.19922c0,2.82 -2.99,4.5 -8,4.5c-5.01,0 -8,-1.68 -8,-4.5c0,-0.41 0.03961,-0.80922 0.09961,-1.19922z"></path></g></g></svg>