<svg xmlns="http://www.w3.org/2000/svg" xmlns:xlink="http://www.w3.org/1999/xlink" viewBox="0,0,256,256" width="100px" height="100px"><g fill="#313131" fill-rule="nonzero" stroke="none" stroke-width="1" stroke-linecap="butt" stroke-linejoin="miter" stroke-miterlimit="10" stroke-dasharray="" stroke-dashoffset="0" font-family="none" font-weight="none" font-size="none" text-anchor="none" style="mix-blend-mode: normal"><g transform="scale(5.12,5.12)"><path d="M34.87695,3.00781c-0.215,0.02625 -0.42289,0.12125 -0.58789,0.28125c-2.06,2.07 -2.29906,5.38141 -0.53906,7.69141l0.00977,0.0293l-4.26953,5.99023c-9.73,-0.06 -12.99992,-0.05 -14.16992,0c-1.21,-0.88 -2.20984,-1.78937 -2.83984,-2.60937c-1.1,-1.4 -1.73125,-2.61094 -1.78125,-2.71094c-0.01,-0.01 -0.00953,-0.01906 -0.01953,-0.03906c-0.75,-1.46 -2.54953,-2.06031 -4.01953,-1.32031c-1.48,0.74 -2.08008,2.54906 -1.33008,4.03906c0.01,0.03 1.66055,2.99094 4.31055,5.71094l-9.41016,11.28906c-0.17,0.21 -0.2507,0.48 -0.2207,0.75c0.03,0.27 0.16086,0.51969 0.38086,0.67969l4.41016,3.40039c0.53,0.46 1.22945,0.7207 1.93945,0.7207c0.9,0 1.72883,-0.39031 2.29883,-1.07031c1.04,-1.25 0.90117,-3.10992 -0.29883,-4.16992l1.41016,-1.41016l2,-2h0.00976c0.04,-0.05 0.07914,-0.07961 0.11914,-0.09961c0.04,-0.03 0.09086,-0.06008 0.13086,-0.08008c0.08,-0.05 0.16977,-0.07984 0.25977,-0.08984c0.06,-0.01 0.12945,-0.01953 0.18945,-0.01953c0.06,0 0.13141,0.00953 0.19141,0.01953c0.07,0.01 0.12945,0.02883 0.18945,0.04883c3.96,1.24 5.42945,-2.52883 5.68945,-3.29883c0.18,-0.53 0.73953,-0.81063 1.26953,-0.64062c0.52,0.18 0.81086,0.74953 0.63086,1.26953c-0.88,2.65 -3.03008,4.91992 -6.08008,4.91992c-0.51,0 -1.03984,-0.05945 -1.58984,-0.18945l-0.19922,0.20117c1.58,1.37 4.35906,2.69922 8.03906,2.69922h10v12c0,0.55 0.45,1 1,1h6c0.81,0 1.56938,-0.32086 2.10938,-0.88086c0.63,-0.61 0.95086,-1.47867 0.88086,-2.38867c-0.13,-1.41 -1.30023,-2.54094 -2.74023,-2.71094l2.7207,-11.79883c0.02,-0.07 0.0293,-0.1407 0.0293,-0.2207v-5.75977l2.61914,-5.24023h3.38086c0.43,0 0.80922,-0.27969 0.94922,-0.67969l2,-6c0.1,-0.31 0.05133,-0.64039 -0.13867,-0.90039c-0.19,-0.27 -0.49055,-0.41992 -0.81055,-0.41992h-3.58984l-2.69922,-2.71094c-0.19,-0.18 -0.44094,-0.28906 -0.71094,-0.28906h-1.7207l-4.76953,-2.85937c-0.195,-0.115 -0.41781,-0.15906 -0.63281,-0.13281zM11.78906,31.92969l-0.78906,13.00977c-0.02,0.27 0.07953,0.54 0.26953,0.75c0.19,0.2 0.45047,0.31055 0.73047,0.31055h6.01953c1.64,-0.03 2.98047,-1.35953 2.98047,-3.01953c-0.03,-1.6 -1.2593,-2.89047 -2.7793,-2.98047l0.28906,-1.44922c-0.08,-0.05 -0.16024,-0.10992 -0.24023,-0.16992c-1.16,-0.87 -1.50008,-2.49148 -0.83008,-3.77148c-2.4,-0.54 -4.33039,-1.57969 -5.65039,-2.67969zM19.96289,35.01758c-0.25375,0.03375 -0.49211,0.16331 -0.66211,0.38281c-0.33,0.44 -0.24078,1.07039 0.19922,1.40039c0.18,0.139 0.38961,0.20898 0.59961,0.20898c0.3,0 0.60078,-0.13939 0.80078,-0.40039c0.33,-0.439 0.25055,-1.06844 -0.18945,-1.39844c-0.225,-0.1655 -0.4943,-0.22711 -0.74805,-0.19336zM22.88086,37.48242c-0.255,-0.01225 -0.5157,0.07281 -0.7207,0.25781c-0.41,0.369 -0.45008,0.9992 -0.08008,1.4082c0.2,0.221 0.47023,0.33008 0.74023,0.33008c0.24,0 0.47969,-0.08 0.67969,-0.25c0.41,-0.37 0.44031,-0.99992 0.07031,-1.41992c-0.185,-0.205 -0.43445,-0.31392 -0.68945,-0.32617zM24.86133,40.49805c-0.12922,0.01014 -0.25836,0.04633 -0.38086,0.11133c-0.49,0.25 -0.67969,0.84984 -0.42969,1.33984c0.18,0.35 0.52867,0.55078 0.88867,0.55078c0.15,0 0.31094,-0.03937 0.46094,-0.10937c0.49,-0.26 0.67969,-0.86256 0.42969,-1.35156c-0.195,-0.36825 -0.58109,-0.57144 -0.96875,-0.54102zM25.90234,44.00391c-0.0975,0.01013 -0.1932,0.03617 -0.2832,0.07617c-0.13,0.05 -0.23008,0.11898 -0.33008,0.20898c-0.09,0.1 -0.15898,0.21008 -0.20898,0.33008c-0.05,0.12 -0.08008,0.25086 -0.08008,0.38086c0,0.27 0.09906,0.52094 0.28906,0.71094c0.19,0.189 0.44094,0.28906 0.71094,0.28906c0.27,0 0.52094,-0.10006 0.71094,-0.28906c0.19,-0.19 0.28906,-0.44094 0.28906,-0.71094c0,-0.13 -0.02008,-0.25991 -0.08008,-0.37891c-0.05,-0.12 -0.11898,-0.23008 -0.20898,-0.33008c-0.05,-0.04 -0.10039,-0.08914 -0.15039,-0.11914c-0.06,-0.04 -0.11969,-0.0718 -0.17969,-0.0918c-0.06,-0.031 -0.12164,-0.05055 -0.18164,-0.06055c-0.1,-0.0205 -0.19937,-0.02575 -0.29687,-0.01562z"></path></g></g></svg>