<svg xmlns="http://www.w3.org/2000/svg"  viewBox="0 0 50 50" width="50px" height="50px"><path d="M 34.876953 3.0078125 C 34.661953 3.0340625 34.454062 3.1290625 34.289062 3.2890625 C 32.229062 5.3590625 31.99 8.6704688 33.75 10.980469 L 33.759766 11.009766 L 29.490234 17 C 19.760234 16.94 16.490313 16.95 15.320312 17 C 14.110313 16.12 13.110469 15.210625 12.480469 14.390625 C 11.380469 12.990625 10.749219 11.779687 10.699219 11.679688 C 10.689219 11.669688 10.689687 11.660625 10.679688 11.640625 C 9.9296875 10.180625 8.1301562 9.5803125 6.6601562 10.320312 C 5.1801562 11.060313 4.5800781 12.869375 5.3300781 14.359375 C 5.3400781 14.389375 6.990625 17.350313 9.640625 20.070312 L 0.23046875 31.359375 C 0.06046875 31.569375 -0.020234375 31.839375 0.009765625 32.109375 C 0.039765625 32.379375 0.170625 32.629062 0.390625 32.789062 L 4.8007812 36.189453 C 5.3307813 36.649453 6.0302344 36.910156 6.7402344 36.910156 C 7.6402344 36.910156 8.4690625 36.519844 9.0390625 35.839844 C 10.079062 34.589844 9.9402344 32.729922 8.7402344 31.669922 L 10.150391 30.259766 L 12.150391 28.259766 L 12.160156 28.259766 C 12.200156 28.209766 12.239297 28.180156 12.279297 28.160156 C 12.319297 28.130156 12.370156 28.100078 12.410156 28.080078 C 12.490156 28.030078 12.579922 28.000234 12.669922 27.990234 C 12.729922 27.980234 12.799375 27.970703 12.859375 27.970703 C 12.919375 27.970703 12.990781 27.980234 13.050781 27.990234 C 13.120781 28.000234 13.180234 28.019063 13.240234 28.039062 C 17.200234 29.279062 18.669687 25.510234 18.929688 24.740234 C 19.109687 24.210234 19.669219 23.929609 20.199219 24.099609 C 20.719219 24.279609 21.010078 24.849141 20.830078 25.369141 C 19.950078 28.019141 17.8 30.289063 14.75 30.289062 C 14.24 30.289062 13.710156 30.229609 13.160156 30.099609 L 12.960938 30.300781 C 14.540938 31.670781 17.32 33 21 33 L 31 33 L 31 45 C 31 45.55 31.45 46 32 46 L 38 46 C 38.81 46 39.569375 45.679141 40.109375 45.119141 C 40.739375 44.509141 41.060234 43.640469 40.990234 42.730469 C 40.860234 41.320469 39.69 40.189531 38.25 40.019531 L 40.970703 28.220703 C 40.990703 28.150703 41 28.08 41 28 L 41 22.240234 L 43.619141 17 L 47 17 C 47.43 17 47.809219 16.720312 47.949219 16.320312 L 49.949219 10.320312 C 50.049219 10.010312 50.000547 9.6799219 49.810547 9.4199219 C 49.620547 9.1499219 49.32 9 49 9 L 45.410156 9 L 42.710938 6.2890625 C 42.520938 6.1090625 42.27 6 42 6 L 40.279297 6 L 35.509766 3.140625 C 35.314766 3.025625 35.091953 2.9815625 34.876953 3.0078125 z M 11.789062 31.929688 L 11 44.939453 C 10.98 45.209453 11.079531 45.479453 11.269531 45.689453 C 11.459531 45.889453 11.72 46 12 46 L 18.019531 46 C 19.659531 45.97 21 44.640469 21 42.980469 C 20.97 41.380469 19.740703 40.09 18.220703 40 L 18.509766 38.550781 C 18.429766 38.500781 18.349531 38.440859 18.269531 38.380859 C 17.109531 37.510859 16.769453 35.889375 17.439453 34.609375 C 15.039453 34.069375 13.109063 33.029688 11.789062 31.929688 z M 19.962891 35.017578 C 19.709141 35.051328 19.470781 35.180891 19.300781 35.400391 C 18.970781 35.840391 19.06 36.470781 19.5 36.800781 C 19.68 36.939781 19.889609 37.009766 20.099609 37.009766 C 20.399609 37.009766 20.700391 36.870375 20.900391 36.609375 C 21.230391 36.170375 21.150938 35.540937 20.710938 35.210938 C 20.485938 35.045437 20.216641 34.983828 19.962891 35.017578 z M 22.880859 37.482422 C 22.625859 37.470172 22.365156 37.555234 22.160156 37.740234 C 21.750156 38.109234 21.710078 38.739438 22.080078 39.148438 C 22.280078 39.369437 22.550313 39.478516 22.820312 39.478516 C 23.060312 39.478516 23.3 39.398516 23.5 39.228516 C 23.91 38.858516 23.940313 38.228594 23.570312 37.808594 C 23.385312 37.603594 23.135859 37.494672 22.880859 37.482422 z M 24.861328 40.498047 C 24.732109 40.508187 24.602969 40.544375 24.480469 40.609375 C 23.990469 40.859375 23.800781 41.459219 24.050781 41.949219 C 24.230781 42.299219 24.579453 42.5 24.939453 42.5 C 25.089453 42.5 25.250391 42.460625 25.400391 42.390625 C 25.890391 42.130625 26.080078 41.528062 25.830078 41.039062 C 25.635078 40.670812 25.248984 40.467625 24.861328 40.498047 z M 25.902344 44.003906 C 25.804844 44.014031 25.709141 44.040078 25.619141 44.080078 C 25.489141 44.130078 25.389063 44.199062 25.289062 44.289062 C 25.199062 44.389062 25.130078 44.499141 25.080078 44.619141 C 25.030078 44.739141 25 44.87 25 45 C 25 45.27 25.099063 45.520938 25.289062 45.710938 C 25.479063 45.899937 25.73 46 26 46 C 26.27 46 26.520937 45.899938 26.710938 45.710938 C 26.900938 45.520937 27 45.27 27 45 C 27 44.87 26.979922 44.740094 26.919922 44.621094 C 26.869922 44.501094 26.800937 44.391016 26.710938 44.291016 C 26.660937 44.251016 26.610547 44.201875 26.560547 44.171875 C 26.500547 44.131875 26.440859 44.100078 26.380859 44.080078 C 26.320859 44.049078 26.259219 44.029531 26.199219 44.019531 C 26.099219 43.999031 25.999844 43.993781 25.902344 44.003906 z"/></svg>