<svg xmlns="http://www.w3.org/2000/svg" xmlns:xlink="http://www.w3.org/1999/xlink" viewBox="0,0,256,256" width="100px" height="100px"><g fill="#ce7474" fill-rule="nonzero" stroke="none" stroke-width="1" stroke-linecap="butt" stroke-linejoin="miter" stroke-miterlimit="10" stroke-dasharray="" stroke-dashoffset="0" font-family="none" font-weight="none" font-size="none" text-anchor="none" style="mix-blend-mode: normal"><g transform="scale(5.12,5.12)"><path d="M19.3125,0c-14.23047,0 -19.3125,10.33203 -19.3125,20c0,6.46875 1.57031,9.05859 3.09375,11.5625c1.48828,2.44531 2.90625,4.74609 2.90625,11.03125v6.40625c0,0.55469 0.44922,1 1,1h17c0.44531,0 0.80859,-0.28516 0.9375,-0.6875c1.23047,0.30469 3.24609,0.6875 5.375,0.6875c4.70313,0 7.54688,-2.5 7.6875,-6.6875c1.00391,-1.45703 1,-1.92187 1,-2.125c0,-1.25391 -0.85937,-2.1875 -2,-2.1875c-5.21875,0 -6.80078,-0.77734 -7.21875,-1.4375c-0.04297,-0.07031 -0.14062,-0.25391 -0.125,-0.5625h7.15625c0.46484,-0.00391 0.86719,-0.32812 0.96875,-0.78125l0.5,-2.21875h0.71875c0.32813,0 0.625,-0.16797 0.8125,-0.4375c0.1875,-0.26953 0.24219,-0.59766 0.125,-0.90625c-0.45312,-1.19531 -0.29297,-2.17187 -0.15625,-2.625l3.6875,-1.84375c1.38672,-0.76953 1.87109,-2.48047 1.09375,-3.875c-0.02344,-0.04297 -0.03125,-0.08594 -0.0625,-0.125l-4.5,-5.8125c-0.01953,-5.26953 -1.6875,-9.71875 -4.8125,-12.875c-3.60156,-3.64062 -8.92969,-5.5 -15.875,-5.5zM27.1875,17.5l7.71875,2.6875c-0.69922,2.10156 -3.11719,3.19922 -5.21875,2.5c-2.10156,-0.69922 -3.19922,-3.08594 -2.5,-5.1875zM48.875,33c-0.01953,0.00781 -0.04297,0.01953 -0.0625,0.03125l-5,1c-0.39453,0.01172 -0.75,0.25391 -0.89844,0.62109c-0.14844,0.36719 -0.07031,0.78906 0.20703,1.07422c0.27734,0.28516 0.69531,0.37891 1.06641,0.24219l5,-1c0.50391,-0.125 0.83203,-0.61328 0.75,-1.12891c-0.08203,-0.51172 -0.54297,-0.87891 -1.0625,-0.83984zM35.59375,34h0.65625l-0.25,1h-5.125c0.95313,-0.68359 2.44922,-1 4.71875,-1zM41.8125,37c-0.4375,0.07422 -0.77344,0.42969 -0.82422,0.87109c-0.04687,0.44141 0.19531,0.86328 0.60547,1.03516l7,3c0.33203,0.19922 0.74609,0.1875 1.06641,-0.02344c0.32031,-0.21484 0.49219,-0.59375 0.4375,-0.97656c-0.05469,-0.37891 -0.32422,-0.69922 -0.69141,-0.8125l-7,-3c-0.18359,-0.08984 -0.39062,-0.125 -0.59375,-0.09375z"></path></g></g></svg>
