<svg xmlns="http://www.w3.org/2000/svg" xmlns:xlink="http://www.w3.org/1999/xlink" viewBox="0,0,256,256" width="100px" height="100px"><g fill="none" fill-rule="none" stroke="none" stroke-width="none" stroke-linecap="none" stroke-linejoin="none" stroke-miterlimit="10" stroke-dasharray="" stroke-dashoffset="0" font-family="none" font-weight="none" font-size="none" text-anchor="none" style="mix-blend-mode: normal"><g transform="scale(2.56,2.56)"><path d="M31.75,13.908l-4.54,26.358" fill="none" fill-rule="nonzero" stroke="#7cce74" stroke-width="4" stroke-linecap="round" stroke-linejoin="round"></path><path d="M16.3,24.817l26.36,4.541" fill="none" fill-rule="nonzero" stroke="#7cce74" stroke-width="4" stroke-linecap="round" stroke-linejoin="round"></path><path d="M18.56,34.848l21.96,-15.5" fill="none" fill-rule="nonzero" stroke="#7cce74" stroke-width="4" stroke-linecap="round" stroke-linejoin="round"></path><path d="M37.29,38.075l-15.5,-21.954" fill="none" fill-rule="nonzero" stroke="#7cce74" stroke-width="4" stroke-linecap="round" stroke-linejoin="round"></path><path d="M28.94,62.258c5.8,0 10.5,4.686 10.5,10.458c0,5.772 -3.67,10.637 -10.5,10.458c-7.91,-0.208 -10.76,-4.685 -10.5,-10.458c0.26,-5.767 4.71,-10.458 10.5,-10.458z" fill="none" fill-rule="nonzero" stroke="#7cce74" stroke-width="4" stroke-linecap="round" stroke-linejoin="round"></path><path d="M26.41,75.027c-0.04,-0.55 0.37,-1.034 0.92,-1.08c0.55,-0.046 1.03,0.363 1.08,0.912c0.04,0.55 -0.37,1.034 -0.92,1.08c-0.55,0.047 -1.03,-0.361 -1.08,-0.912" fill="#000000" fill-rule="evenodd" stroke="none" stroke-width="1" stroke-linecap="butt" stroke-linejoin="miter"></path><path d="M25.68,70.254c-0.05,-0.55 0.36,-1.034 0.91,-1.081c0.55,-0.046 1.03,0.363 1.08,0.913c0.05,0.55 -0.36,1.034 -0.91,1.08c-0.55,0.046 -1.04,-0.362 -1.08,-0.912" fill="#000000" fill-rule="evenodd" stroke="none" stroke-width="1" stroke-linecap="butt" stroke-linejoin="miter"></path><path d="M30.68,73.276c-0.05,-0.55 0.36,-1.034 0.91,-1.081c0.55,-0.046 1.04,0.362 1.08,0.912c0.05,0.55 -0.36,1.034 -0.91,1.081c-0.55,0.047 -1.03,-0.362 -1.08,-0.912" fill="#000000" fill-rule="evenodd" stroke="none" stroke-width="1" stroke-linecap="butt" stroke-linejoin="miter"></path><path d="M28.93,88.289v3.682" fill="none" fill-rule="nonzero" stroke="#7cce74" stroke-width="2" stroke-linecap="round" stroke-linejoin="round"></path><path d="M44.27,74.441h3.7" fill="none" fill-rule="nonzero" stroke="#7cce74" stroke-width="2" stroke-linecap="round" stroke-linejoin="round"></path><path d="M8.85,74.441h3.69" fill="none" fill-rule="nonzero" stroke="#7cce74" stroke-width="2" stroke-linecap="round" stroke-linejoin="round"></path><path d="M28.93,53.634v3.682" fill="none" fill-rule="nonzero" stroke="#7cce74" stroke-width="2" stroke-linecap="round" stroke-linejoin="round"></path><path d="M40.43,62.478l3.69,-2.761" fill="none" fill-rule="nonzero" stroke="#7cce74" stroke-width="2" stroke-linecap="round" stroke-linejoin="round"></path><path d="M16.34,59.207l2.15,1.865" fill="none" fill-rule="nonzero" stroke="#7cce74" stroke-width="2" stroke-linecap="round" stroke-linejoin="round"></path><path d="M13.51,85.691l2.98,-2.143" fill="none" fill-rule="nonzero" stroke="#7cce74" stroke-width="2" stroke-linecap="round" stroke-linejoin="round"></path><path d="M41.59,85.08l1.85,1.841" fill="none" fill-rule="nonzero" stroke="#7cce74" stroke-width="2" stroke-linecap="round" stroke-linejoin="round"></path><path d="M71.94,17.818c0.92,-2.753 3.61,-4.339 5.99,-3.54c2.38,0.799 3.56,3.684 2.64,6.437c2.94,-0.545 5.75,0.949 6.28,3.334c0.52,2.385 -1.44,4.764 -4.38,5.309c2.02,2.208 2.14,5.288 0.29,6.874c-1.86,1.586 -5,1.08 -7.02,-1.128c-0.92,2.753 -3.61,4.339 -5.99,3.54c-2.38,-0.799 -3.56,-3.684 -2.64,-6.437c-2.94,0.545 -5.75,-0.949 -6.28,-3.334c-0.52,-2.385 1.44,-4.764 4.38,-5.309c-2.02,-2.208 -2.14,-5.288 -0.29,-6.874c1.86,-1.586 5,-1.08 7.02,1.128z" fill="none" fill-rule="nonzero" stroke="#7cce74" stroke-width="4" stroke-linecap="round" stroke-linejoin="round"></path><path d="M73.68,23.469c1.66,0 3.01,1.348 3.01,3.007c0,1.659 -1.35,3.007 -3.01,3.007c-1.66,0 -3,-1.348 -3,-3.007c0,-1.659 1.34,-3.007 3,-3.007z" fill="#000000" fill-rule="evenodd" stroke="none" stroke-width="1" stroke-linecap="butt" stroke-linejoin="miter"></path><path d="M65.88,80.007c-2.44,-1.755 -6.01,-5.792 -5.24,-12.087c3.05,-0.853 7.17,1.021 9.29,3.885c-0.65,-5.156 0.42,-9.906 4.4,-13.966c4.82,4.04 5.65,8.769 4.12,13.905c2.31,-2.609 7.41,-5.184 9.73,-4.611c0.7,5.737 -3.23,10.389 -6.59,13.053c-3.87,3.068 -10.41,3.631 -15.71,-0.179z" fill="none" fill-rule="nonzero" stroke="#7cce74" stroke-width="4" stroke-linecap="round" stroke-linejoin="round"></path><path d="M74.42,77.168c0.61,5.667 -0.04,9.36 -1.14,11.719" fill="none" fill-rule="nonzero" stroke="#7cce74" stroke-width="4" stroke-linecap="round" stroke-linejoin="round"></path><path d="M64.4,79.678c-0.27,-0.54 -2.11,2.973 -2.11,2.973" fill="none" fill-rule="nonzero" stroke="#7cce74" stroke-width="2" stroke-linecap="round" stroke-linejoin="round"></path><path d="M67.78,80.786l-1.84,5.162" fill="none" fill-rule="nonzero" stroke="#7cce74" stroke-width="2" stroke-linecap="round" stroke-linejoin="round"></path><path d="M70.86,81.894l-1.16,3.919" fill="none" fill-rule="nonzero" stroke="#7cce74" stroke-width="2" stroke-linecap="round" stroke-linejoin="round"></path><path d="M62.22,31.403l-2.48,3.081" fill="none" fill-rule="nonzero" stroke="#7cce74" stroke-width="2" stroke-linecap="round" stroke-linejoin="round"></path><path d="M65.22,33.403l-2.48,3.081" fill="none" fill-rule="nonzero" stroke="#7cce74" stroke-width="2" stroke-linecap="round" stroke-linejoin="round"></path><path d="M68.22,37.403l-2.48,3.081" fill="none" fill-rule="nonzero" stroke="#7cce74" stroke-width="2" stroke-linecap="round" stroke-linejoin="round"></path></g></g></svg>