<svg xmlns="http://www.w3.org/2000/svg"  viewBox="0 0 100 100" width="50px" height="50px" clip-rule="evenodd" baseProfile="basic"><line x1="31.75" x2="27.21" y1="13.908" y2="40.266" fill="none" stroke="#060000" stroke-linecap="round" stroke-linejoin="round" stroke-miterlimit="10" stroke-width="4"/><line x1="16.3" x2="42.66" y1="24.817" y2="29.358" fill="none" stroke="#060000" stroke-linecap="round" stroke-linejoin="round" stroke-miterlimit="10" stroke-width="4"/><line x1="18.56" x2="40.52" y1="34.848" y2="19.348" fill="none" stroke="#060000" stroke-linecap="round" stroke-linejoin="round" stroke-miterlimit="10" stroke-width="4"/><line x1="37.29" x2="21.79" y1="38.075" y2="16.121" fill="none" stroke="#060000" stroke-linecap="round" stroke-linejoin="round" stroke-miterlimit="10" stroke-width="4"/><path fill="none" stroke="#060000" stroke-linecap="round" stroke-linejoin="round" stroke-miterlimit="10" stroke-width="4" d="M28.94,62.258c5.8,0,10.5,4.686,10.5,10.458c0,5.772-3.67,10.637-10.5,10.458c-7.91-0.208-10.76-4.685-10.5-10.458	C18.7,66.949,23.15,62.258,28.94,62.258z"/><path fill-rule="evenodd" d="M26.41,75.027c-0.04-0.55,0.37-1.034,0.92-1.08	c0.55-0.046,1.03,0.363,1.08,0.912c0.04,0.55-0.37,1.034-0.92,1.08C26.94,75.986,26.46,75.578,26.41,75.027" clip-rule="evenodd"/><path fill-rule="evenodd" d="M25.68,70.254c-0.05-0.55,0.36-1.034,0.91-1.081	c0.55-0.046,1.03,0.363,1.08,0.913c0.05,0.55-0.36,1.034-0.91,1.08C26.21,71.212,25.72,70.804,25.68,70.254" clip-rule="evenodd"/><path fill-rule="evenodd" d="M30.68,73.276c-0.05-0.55,0.36-1.034,0.91-1.081	c0.55-0.046,1.04,0.362,1.08,0.912c0.05,0.55-0.36,1.034-0.91,1.081C31.21,74.235,30.73,73.826,30.68,73.276" clip-rule="evenodd"/><line x1="28.93" x2="28.93" y1="88.289" y2="91.971" fill="none" stroke="#060000" stroke-linecap="round" stroke-linejoin="round" stroke-miterlimit="10" stroke-width="2"/><line x1="44.27" x2="47.97" y1="74.441" y2="74.441" fill="none" stroke="#060000" stroke-linecap="round" stroke-linejoin="round" stroke-miterlimit="10" stroke-width="2"/><line x1="8.85" x2="12.54" y1="74.441" y2="74.441" fill="none" stroke="#060000" stroke-linecap="round" stroke-linejoin="round" stroke-miterlimit="10" stroke-width="2"/><line x1="28.93" x2="28.93" y1="53.634" y2="57.316" fill="none" stroke="#060000" stroke-linecap="round" stroke-linejoin="round" stroke-miterlimit="10" stroke-width="2"/><line x1="40.43" x2="44.12" y1="62.478" y2="59.717" fill="none" stroke="#060000" stroke-linecap="round" stroke-linejoin="round" stroke-miterlimit="10" stroke-width="2"/><line x1="16.34" x2="18.49" y1="59.207" y2="61.072" fill="none" stroke="#060000" stroke-linecap="round" stroke-linejoin="round" stroke-miterlimit="10" stroke-width="2"/><line x1="13.51" x2="16.49" y1="85.691" y2="83.548" fill="none" stroke="#060000" stroke-linecap="round" stroke-linejoin="round" stroke-miterlimit="10" stroke-width="2"/><line x1="41.59" x2="43.44" y1="85.08" y2="86.921" fill="none" stroke="#060000" stroke-linecap="round" stroke-linejoin="round" stroke-miterlimit="10" stroke-width="2"/><path fill="none" stroke="#060000" stroke-linecap="round" stroke-linejoin="round" stroke-miterlimit="10" stroke-width="4" d="M71.94,17.818c0.92-2.753,3.61-4.339,5.99-3.54c2.38,0.799,3.56,3.684,2.64,6.437c2.94-0.545,5.75,0.949,6.28,3.334	c0.52,2.385-1.44,4.764-4.38,5.309c2.02,2.208,2.14,5.288,0.29,6.874c-1.86,1.586-5,1.08-7.02-1.128	c-0.92,2.753-3.61,4.339-5.99,3.54c-2.38-0.799-3.56-3.684-2.64-6.437c-2.94,0.545-5.75-0.949-6.28-3.334	c-0.52-2.385,1.44-4.764,4.38-5.309c-2.02-2.208-2.14-5.288-0.29-6.874C66.78,15.104,69.92,15.61,71.94,17.818z"/><path fill-rule="evenodd" d="M73.68,23.469c1.66,0,3.01,1.348,3.01,3.007s-1.35,3.007-3.01,3.007	c-1.66,0-3-1.348-3-3.007S72.02,23.469,73.68,23.469z" clip-rule="evenodd"/><path fill="none" stroke="#060000" stroke-linecap="round" stroke-linejoin="round" stroke-miterlimit="10" stroke-width="4" d="M65.88,80.007c-2.44-1.755-6.01-5.792-5.24-12.087c3.05-0.853,7.17,1.021,9.29,3.885c-0.65-5.156,0.42-9.906,4.4-13.966	c4.82,4.04,5.65,8.769,4.12,13.905c2.31-2.609,7.41-5.184,9.73-4.611c0.7,5.737-3.23,10.389-6.59,13.053	C77.72,83.254,71.18,83.817,65.88,80.007z"/><path fill="none" stroke="#060000" stroke-linecap="round" stroke-linejoin="round" stroke-miterlimit="10" stroke-width="4" d="M74.42,77.168c0.61,5.667-0.04,9.36-1.14,11.719"/><path fill="none" stroke="#060000" stroke-linecap="round" stroke-linejoin="round" stroke-miterlimit="10" stroke-width="2" d="M64.4,79.678c-0.27-0.54-2.11,2.973-2.11,2.973"/><line x1="67.78" x2="65.94" y1="80.786" y2="85.948" fill="none" stroke="#060000" stroke-linecap="round" stroke-linejoin="round" stroke-miterlimit="10" stroke-width="2"/><line x1="70.86" x2="69.7" y1="81.894" y2="85.813" fill="none" stroke="#060000" stroke-linecap="round" stroke-linejoin="round" stroke-miterlimit="10" stroke-width="2"/><line x1="62.22" x2="59.74" y1="31.403" y2="34.484" fill="none" stroke="#060000" stroke-linecap="round" stroke-linejoin="round" stroke-miterlimit="10" stroke-width="2"/><line x1="65.22" x2="62.74" y1="33.403" y2="36.484" fill="none" stroke="#060000" stroke-linecap="round" stroke-linejoin="round" stroke-miterlimit="10" stroke-width="2"/><line x1="68.22" x2="65.74" y1="37.403" y2="40.484" fill="none" stroke="#060000" stroke-linecap="round" stroke-linejoin="round" stroke-miterlimit="10" stroke-width="2"/></svg>