<svg xmlns="http://www.w3.org/2000/svg"  viewBox="0 0 4335 4335" width="67px" height="67px" clip-rule="evenodd" image-rendering="optimizeQuality" shape-rendering="geometricPrecision" text-rendering="geometricPrecision"><path d="M1571 3485c4,157 -90,328 -202,436 -420,404 -1063,140 -1145,-369 -96,-589 531,-983 1010,-705 117,68 254,208 292,339 -58,54 -279,112 -450,142 -37,-47 -95,-77 -159,-77 -112,0 -202,91 -202,202 0,112 91,202 202,202 86,0 160,-54 189,-130 28,-5 51,-9 65,-12 230,-49 257,-84 387,-118 18,-6 14,14 14,35 0,19 -2,35 -1,55zm-264 -3207c137,-19 344,44 359,155l117 -16c61,-8 231,96 93,115l-208 29c41,57 65,126 56,217 -15,153 -157,287 -325,283 -350,-7 -281,-320 -313,-548 -15,-111 83,-217 220,-236zm1949 1384l-256 0c-187,0 -254,284 -254,284l0 0c13,44 25,95 40,142 29,88 180,486 225,537 115,-40 190,-71 334,-77 330,-14 667,178 807,463 361,734 -292,1451 -1008,1260 -446,-119 -717,-574 -627,-1023 68,-340 292,-474 322,-524 -29,-41 -77,-155 -100,-209 -31,-75 -61,-153 -94,-227 -15,23 -77,176 -128,263 -212,360 -123,67 -218,570l-119 641 176 0c76,0 139,62 139,139l0 0c0,25 -21,46 -46,46l-373 0 0 -4c-29,-3 -56,-23 -55,-80 5,-252 19,-516 31,-768l-139 101c-44,30 -105,75 -152,93 6,170 21,251 -31,414 -39,121 -98,217 -164,297 -104,126 -251,226 -415,276 -50,15 -158,27 -190,39l-136 0c-39,-14 -112,-9 -240,-56 -526,-192 -757,-847 -393,-1351 145,-201 455,-401 841,-338 268,44 485,201 617,423 17,28 38,79 54,100 111,-57 227,-150 315,-242l-699 -436c-87,-54 -158,-78 -188,-191 -28,-106 -10,-601 -10,-747 0,-141 -11,-221 72,-306 63,-65 173,-100 282,-49 85,40 141,126 195,184 35,37 53,59 89,97 323,336 114,259 602,349 47,9 170,27 250,46 86,-261 313,-281 313,-281l328 0c218,-447 218,592 0,145zm123 1589c112,0 202,91 202,202 0,112 -91,202 -202,202 -112,0 -202,-91 -202,-202 0,-37 10,-72 28,-102 -59,-83 -121,-179 -168,-257 -23,-38 -84,-158 -106,-181 -91,71 -200,234 -225,412 -50,357 169,676 518,763 190,47 388,-4 520,-88 571,-365 311,-1264 -376,-1254 -69,1 -227,23 -265,61 33,85 178,309 274,444l2 0zm-880 -1306c47,4 15,-3 30,13 -17,192 -185,535 -281,639l-411 -353c-29,-24 -196,-159 -208,-178 -22,-35 -10,-309 -8,-373 44,19 139,93 183,124 308,215 251,130 695,129zm537 -119c-113,38 -59,147 -34,248 109,441 33,366 500,367 178,1 149,-47 202,-324 17,-89 64,-221 -1,-276 -46,-40 -249,-23 -327,-23 -74,0 -284,-10 -339,8z"/></svg>