<svg xmlns="http://www.w3.org/2000/svg" xmlns:xlink="http://www.w3.org/1999/xlink" viewBox="0,0,256,256" width="100px" height="100px"><g fill="#9b74ce" fill-rule="nonzero" stroke="none" stroke-width="1" stroke-linecap="butt" stroke-linejoin="miter" stroke-miterlimit="10" stroke-dasharray="" stroke-dashoffset="0" font-family="none" font-weight="none" font-size="none" text-anchor="none" style="mix-blend-mode: normal"><g transform="scale(5.12,5.12)"><path d="M22.19531,4.00391c-0.14844,0.01563 -0.29687,0.07422 -0.42187,0.16797c-0.25,0.1875 -0.37891,0.49609 -0.33594,0.80469c0.17578,1.26172 -0.6875,2.55469 -1.68359,4.05469c-1.47266,2.21484 -3.30469,4.97266 -2.59766,8.93359c0.55078,3.07813 2.70703,5.03516 5.84375,5.03516c0.76953,0 1.56641,-0.24219 2.24219,-0.44141c1.09766,-5.15234 0.44141,-8.57812 -1.03906,-12.28125c-0.17969,-0.44141 0.03906,-0.94141 0.48047,-1.12109c0.44141,-0.17187 0.94531,0.03906 1.12109,0.48438c1.49609,3.73828 2.23047,7.35938 1.26953,12.51953c0.43359,0.17969 0.94531,0.30859 1.51953,0.30859c1.13672,0 2.24609,-0.49609 3.29688,-1.48047c1.03906,-0.96875 2.08203,-3.10547 1.60938,-5.93359c-0.41797,-2.47656 -2.37891,-7.19531 -10.85937,-10.98047c-0.14062,-0.0625 -0.29687,-0.08594 -0.44531,-0.07031zM27.07422,22.16016c-0.15234,-0.0625 -0.30078,-0.13281 -0.43359,-0.20703c-0.38281,0.24609 -0.87109,0.44531 -1.39844,0.60547c-0.28125,1.3125 -0.66797,2.73438 -1.19531,4.30469c-0.14844,0.45313 0.09375,0.94141 0.54688,1.08984c0.08984,0.03125 0.17969,0.04688 0.26953,0.04688c0.36328,0 0.69922,-0.23047 0.82031,-0.58984c0.64453,-1.92969 1.09375,-3.66016 1.39063,-5.25zM5,12c-1.60547,0 -3,1 -3,3v12c0,3 0.93359,3.83984 2,5c0,0 5.96875,7.66016 7,9v6.14063c0,0.85938 0.80078,0.85938 1,0.85938h8c1,0 1,-0.56641 1,-1v-8c0,-3.67969 -1.82812,-6.37109 -3.9375,-8.49219l-4.79297,-5.11328c-1.83203,-1.83203 -3.23828,-0.63672 -3.51172,-0.34766c-0.90234,0.94531 -0.90625,2.41797 -0.01562,3.34766l4.79297,5.09375c0.32031,0.33594 0.32031,0.87891 0,1.21484c-0.15625,0.16797 -0.36719,0.25 -0.57812,0.25c-0.20703,0 -0.41797,-0.08203 -0.57812,-0.25l-4.39063,-4.69141c-2.98828,-3.01172 -0.98828,-6.01172 0.01172,-6.01172v-9c0,-2 -1.39453,-3 -3,-3zM45,12c-1.60547,0 -3,1 -3,3v9c1,0 3,3 0.01172,6.01172l-4.39062,4.69141c-0.16016,0.16797 -0.37109,0.25 -0.57812,0.25c-0.21094,0 -0.42187,-0.08203 -0.57812,-0.25c-0.32031,-0.33594 -0.32031,-0.87891 0,-1.21484l4.79688,-5.09375c0.88672,-0.92969 0.88281,-2.40234 -0.01562,-3.34766c-0.27734,-0.28906 -1.68359,-1.48437 -3.51562,0.34766l-4.79297,5.11328c-2.10937,2.12109 -3.9375,4.8125 -3.9375,8.49219v8c0,0.43359 0,1 1,1h8c0.19922,0 1,0 1,-0.85937v-6.14062c1.03125,-1.33984 7,-9 7,-9c1.06641,-1.16016 2,-2 2,-5v-12c0,-2 -1.39453,-3 -3,-3z"></path></g></g></svg>