<svg xmlns="http://www.w3.org/2000/svg"  viewBox="0 0 480 480" width="60px" height="60px"><path d="M472 358.813H8c-4.418 0-8 3.582-8 8s3.582 8 8 8h19.246l12.905 36.375c5.65 15.926 20.8 26.625 37.698 26.625h324.303c16.898 0 32.047-10.7 37.698-26.625l12.905-36.375H472c4.418 0 8-3.582 8-8S476.418 358.813 472 358.813zM107.888 191.937c-17.519 18.276-28.47 42.676-29.942 68.747-.164 2.913-1.855 5.521-4.476 6.803-7.757 3.794-9.941 8.916-21.27 8.916-23.235 0-34.85-29.471-17.06-44.72-12.89-6.87-18.39-22.55-12.53-36 5.86-13.45 21.09-20.09 34.89-15.34-.636-15.701 13.964-29.153 30.82-25.58 10.91 2.23 19.19 11.39 20.14 22.29.213 2.42.681 4.781 1.384 7.047C110.7 186.862 109.889 189.849 107.888 191.937zM475.73 256.763c-11.176 30.117-46.547 23.733-79.023 49.447-3.59 2.842-8.853 2.026-11.466-1.734-9.604-13.821-27.944-37.085-47.32-56.834-1.875-1.911-2.652-4.642-2.087-7.26l1.347-6.239c1.786-8.279-9.2-13.353-13.987-6.705-1.369 1.902-4.125 2.096-5.871.532-23.289-20.859-48.313-38.7-73.73-53.428-1.189-.689-2.172-1.675-2.879-2.854-31.699-52.801 21.753-96.868 61.047-67.855.455-11.855 3.443-22.336 8.77-32.43 26.39-49.135 100.723-32.792 104.04 22.91.547 11.195-.989 21.773-5.59 32.93 34.202-6.657 57.874 23.261 51.99 51.9-4.934 22.813-26.167 39.341-48.59 46.76-3.93 1.3-6.18 5.43-5.2 9.46 1.132 4.64 6.013 7.143 10.38 5.67 15.968-5.338 31.328-14.731 42.513-27.118 3.745-4.147 10.496-3.365 13.055 1.602C479.727 228.322 480.217 244.661 475.73 256.763zM373.81 342.813H135.691c-1.751 0-3.449-.583-4.851-1.633-34.55-25.873-46.431-72.009-29.39-111.147 19.289-44.259 71.575-70.096 124.381-46.559 5.378 2.397 6.336 9.649 1.808 13.413-19.434 16.154-36.471 37.073-49.109 61.696-2.02 3.93-.47 8.76 3.46 10.77 3.997 2.05 8.79.416 10.77-3.46 13.68-26.646 32.653-48.239 54.875-64.253 2.704-1.949 6.329-1.994 9.114-.163 13.261 8.725 25.951 18.126 38.051 28.189 3.478 2.892 3.824 8.079.835 11.474-9.52 10.812-18.242 22.528-25.926 34.793-3.343 5.358.562 12.25 6.78 12.25 8.625 0 6.979-9.485 30.993-36.364 3.024-3.385 8.275-3.572 11.534-.412 21.432 20.778 40.686 43.862 57.633 69.136 2.68 3.996 4.382 8.448 5.072 13.037C382.452 338.435 378.719 342.813 373.81 342.813z"/></svg>