<svg xmlns="http://www.w3.org/2000/svg" xmlns:xlink="http://www.w3.org/1999/xlink" viewBox="0,0,256,256" width="100px" height="100px"><g fill="#7498ce" fill-rule="evenodd" stroke="none" stroke-width="1" stroke-linecap="butt" stroke-linejoin="miter" stroke-miterlimit="10" stroke-dasharray="" stroke-dashoffset="0" font-family="none" font-weight="none" font-size="none" text-anchor="none" style="mix-blend-mode: normal"><g transform="scale(0.05905,0.05905)"><path d="M1571,3485c4,157 -90,328 -202,436c-420,404 -1063,140 -1145,-369c-96,-589 531,-983 1010,-705c117,68 254,208 292,339c-58,54 -279,112 -450,142c-37,-47 -95,-77 -159,-77c-112,0 -202,91 -202,202c0,112 91,202 202,202c86,0 160,-54 189,-130c28,-5 51,-9 65,-12c230,-49 257,-84 387,-118c18,-6 14,14 14,35c0,19 -2,35 -1,55zM1307,278c137,-19 344,44 359,155l117,-16c61,-8 231,96 93,115l-208,29c41,57 65,126 56,217c-15,153 -157,287 -325,283c-350,-7 -281,-320 -313,-548c-15,-111 83,-217 220,-236zM3256,1662h-256c-187,0 -254,284 -254,284v0c13,44 25,95 40,142c29,88 180,486 225,537c115,-40 190,-71 334,-77c330,-14 667,178 807,463c361,734 -292,1451 -1008,1260c-446,-119 -717,-574 -627,-1023c68,-340 292,-474 322,-524c-29,-41 -77,-155 -100,-209c-31,-75 -61,-153 -94,-227c-15,23 -77,176 -128,263c-212,360 -123,67 -218,570l-119,641h176c76,0 139,62 139,139v0c0,25 -21,46 -46,46h-373v-4c-29,-3 -56,-23 -55,-80c5,-252 19,-516 31,-768l-139,101c-44,30 -105,75 -152,93c6,170 21,251 -31,414c-39,121 -98,217 -164,297c-104,126 -251,226 -415,276c-50,15 -158,27 -190,39h-136c-39,-14 -112,-9 -240,-56c-526,-192 -757,-847 -393,-1351c145,-201 455,-401 841,-338c268,44 485,201 617,423c17,28 38,79 54,100c111,-57 227,-150 315,-242l-699,-436c-87,-54 -158,-78 -188,-191c-28,-106 -10,-601 -10,-747c0,-141 -11,-221 72,-306c63,-65 173,-100 282,-49c85,40 141,126 195,184c35,37 53,59 89,97c323,336 114,259 602,349c47,9 170,27 250,46c86,-261 313,-281 313,-281h328c218,-447 218,592 0,145zM3379,3251c112,0 202,91 202,202c0,112 -91,202 -202,202c-112,0 -202,-91 -202,-202c0,-37 10,-72 28,-102c-59,-83 -121,-179 -168,-257c-23,-38 -84,-158 -106,-181c-91,71 -200,234 -225,412c-50,357 169,676 518,763c190,47 388,-4 520,-88c571,-365 311,-1264 -376,-1254c-69,1 -227,23 -265,61c33,85 178,309 274,444zM2499,1945c47,4 15,-3 30,13c-17,192 -185,535 -281,639l-411,-353c-29,-24 -196,-159 -208,-178c-22,-35 -10,-309 -8,-373c44,19 139,93 183,124c308,215 251,130 695,129zM3036,1826c-113,38 -59,147 -34,248c109,441 33,366 500,367c178,1 149,-47 202,-324c17,-89 64,-221 -1,-276c-46,-40 -249,-23 -327,-23c-74,0 -284,-10 -339,8z"></path></g></g></svg>