<svg xmlns="http://www.w3.org/2000/svg"  viewBox="0 0 64 64" width="64px" height="64px"><path d="M 51.867188 4.0332031 C 47.867188 4.0332031 45.199219 6.6992188 45.199219 6.6992188 C 45.199219 6.6992188 49 11.199219 49 15.199219 C 49 15.199219 46.771031 16.739203 46.332031 20.533203 C 45.661031 26.339203 42.084969 29.784219 39.417969 32.449219 C 36.017969 35.848219 30.332031 40.199219 22.332031 44.199219 C 14.332031 48.199219 13.099609 52.533203 13.099609 52.533203 C 13.099609 52.533203 12.801031 54.377203 14.332031 55.533203 C 14.332031 55.533203 17.000016 57 19.666016 57 C 43.667016 57 61 36.533203 61 24.533203 C 61 21.479203 60.479547 19.291656 59.685547 17.722656 C 59.726547 17.759656 59.751953 17.783203 59.751953 17.783203 C 57.251953 12.422203 51.867187 14.700203 51.867188 4.0332031 z M 44.740234 21.080078 C 41.920234 24.080078 38.399375 25.369453 35.609375 26.439453 C 31.129375 28.159453 24.160469 29.830469 15.230469 30.230469 C 6.2904688 30.630469 3.4003906 34.089844 3.4003906 34.089844 C 3.4003906 34.089844 2.3805469 35.650078 3.3105469 37.330078 C 3.3105469 37.330078 5.1498437 39.749844 7.5898438 40.839844 C 9.7498437 41.799844 11.929141 42.560859 14.119141 43.130859 C 24.739141 41.220859 41.920234 30.800078 44.740234 21.080078 z"/></svg>