<svg xmlns="http://www.w3.org/2000/svg" xmlns:xlink="http://www.w3.org/1999/xlink" viewBox="0,0,256,256" width="100px" height="100px"><g fill="#9b74ce" fill-rule="nonzero" stroke="none" stroke-width="1" stroke-linecap="butt" stroke-linejoin="miter" stroke-miterlimit="10" stroke-dasharray="" stroke-dashoffset="0" font-family="none" font-weight="none" font-size="none" text-anchor="none" style="mix-blend-mode: normal"><g transform="scale(4,4)"><path d="M51.86719,4.0332c-4,0 -6.66797,2.66602 -6.66797,2.66602c0,0 3.80078,4.5 3.80078,8.5c0,0 -2.22897,1.53998 -2.66797,5.33398c-0.671,5.806 -4.24706,9.25102 -6.91406,11.91602c-3.4,3.399 -9.08594,7.75 -17.08594,11.75c-8,4 -9.23242,8.33398 -9.23242,8.33398c0,0 -0.29858,1.844 1.23242,3c0,0 2.66798,1.4668 5.33398,1.4668c24.001,0 41.33398,-20.4668 41.33398,-32.4668c0,-3.054 -0.52045,-5.24155 -1.31445,-6.81055c0.041,0.037 0.06641,0.06055 0.06641,0.06055c-2.5,-5.361 -7.88477,-3.083 -7.88477,-13.75zM44.74023,21.08008c-2.82,3 -6.34086,4.28938 -9.13086,5.35938c-4.48,1.72 -11.44891,3.39102 -20.37891,3.79102c-8.94,0.4 -11.83008,3.85938 -11.83008,3.85938c0,0 -1.01984,1.56023 -0.08984,3.24023c0,0 1.8393,2.41977 4.2793,3.50977c2.16,0.96 4.3393,1.72102 6.5293,2.29102c10.62,-1.91 27.80109,-12.33078 30.62109,-22.05078z"></path></g></g></svg>