<svg xmlns="http://www.w3.org/2000/svg" xmlns:xlink="http://www.w3.org/1999/xlink" viewBox="0,0,256,256" width="100px" height="100px"><g fill="#7cce74" fill-rule="nonzero" stroke="none" stroke-width="1" stroke-linecap="butt" stroke-linejoin="miter" stroke-miterlimit="10" stroke-dasharray="" stroke-dashoffset="0" font-family="none" font-weight="none" font-size="none" text-anchor="none" style="mix-blend-mode: normal"><g transform="scale(0.53333,0.53333)"><path d="M472,358.813h-464c-4.418,0 -8,3.582 -8,8c0,4.418 3.582,8 8,8h19.246l12.905,36.375c5.65,15.926 20.8,26.625 37.698,26.625h324.303c16.898,0 32.047,-10.7 37.698,-26.625l12.905,-36.375h19.245c4.418,0 8,-3.582 8,-8c0,-4.418 -3.582,-8 -8,-8zM107.888,191.937c-17.519,18.276 -28.47,42.676 -29.942,68.747c-0.164,2.913 -1.855,5.521 -4.476,6.803c-7.757,3.794 -9.941,8.916 -21.27,8.916c-23.235,0 -34.85,-29.471 -17.06,-44.72c-12.89,-6.87 -18.39,-22.55 -12.53,-36c5.86,-13.45 21.09,-20.09 34.89,-15.34c-0.636,-15.701 13.964,-29.153 30.82,-25.58c10.91,2.23 19.19,11.39 20.14,22.29c0.213,2.42 0.681,4.781 1.384,7.047c0.856,2.762 0.045,5.749 -1.956,7.837zM475.73,256.763c-11.176,30.117 -46.547,23.733 -79.023,49.447c-3.59,2.842 -8.853,2.026 -11.466,-1.734c-9.604,-13.821 -27.944,-37.085 -47.32,-56.834c-1.875,-1.911 -2.652,-4.642 -2.087,-7.26l1.347,-6.239c1.786,-8.279 -9.2,-13.353 -13.987,-6.705c-1.369,1.902 -4.125,2.096 -5.871,0.532c-23.289,-20.859 -48.313,-38.7 -73.73,-53.428c-1.189,-0.689 -2.172,-1.675 -2.879,-2.854c-31.699,-52.801 21.753,-96.868 61.047,-67.855c0.455,-11.855 3.443,-22.336 8.77,-32.43c26.39,-49.135 100.723,-32.792 104.04,22.91c0.547,11.195 -0.989,21.773 -5.59,32.93c34.202,-6.657 57.874,23.261 51.99,51.9c-4.934,22.813 -26.167,39.341 -48.59,46.76c-3.93,1.3 -6.18,5.43 -5.2,9.46c1.132,4.64 6.013,7.143 10.38,5.67c15.968,-5.338 31.328,-14.731 42.513,-27.118c3.745,-4.147 10.496,-3.365 13.055,1.602c6.598,12.805 7.088,29.144 2.601,41.246zM373.81,342.813h-238.119c-1.751,0 -3.449,-0.583 -4.851,-1.633c-34.55,-25.873 -46.431,-72.009 -29.39,-111.147c19.289,-44.259 71.575,-70.096 124.381,-46.559c5.378,2.397 6.336,9.649 1.808,13.413c-19.434,16.154 -36.471,37.073 -49.109,61.696c-2.02,3.93 -0.47,8.76 3.46,10.77c3.997,2.05 8.79,0.416 10.77,-3.46c13.68,-26.646 32.653,-48.239 54.875,-64.253c2.704,-1.949 6.329,-1.994 9.114,-0.163c13.261,8.725 25.951,18.126 38.051,28.189c3.478,2.892 3.824,8.079 0.835,11.474c-9.52,10.812 -18.242,22.528 -25.926,34.793c-3.343,5.358 0.562,12.25 6.78,12.25c8.625,0 6.979,-9.485 30.993,-36.364c3.024,-3.385 8.275,-3.572 11.534,-0.412c21.432,20.778 40.686,43.862 57.633,69.136c2.68,3.996 4.382,8.448 5.072,13.037c0.731,4.855 -3.002,9.233 -7.911,9.233z"></path></g></g></svg>