<svg xmlns="http://www.w3.org/2000/svg"  viewBox="0 0 50 50" width="100px" height="100px"><path d="M 19.3125 0 C 5.082031 0 0 10.332031 0 20 C 0 26.46875 1.570313 29.058594 3.09375 31.5625 C 4.582031 34.007813 6 36.308594 6 42.59375 L 6 49 C 6 49.554688 6.449219 50 7 50 L 24 50 C 24.445313 50 24.808594 49.714844 24.9375 49.3125 C 26.167969 49.617188 28.183594 50 30.3125 50 C 35.015625 50 37.859375 47.5 38 43.3125 C 39.003906 41.855469 39 41.390625 39 41.1875 C 39 39.933594 38.140625 39 37 39 C 31.78125 39 30.199219 38.222656 29.78125 37.5625 C 29.738281 37.492188 29.640625 37.308594 29.65625 37 L 36.8125 37 C 37.277344 36.996094 37.679688 36.671875 37.78125 36.21875 L 38.28125 34 L 39 34 C 39.328125 34 39.625 33.832031 39.8125 33.5625 C 40 33.292969 40.054688 32.964844 39.9375 32.65625 C 39.484375 31.460938 39.644531 30.484375 39.78125 30.03125 L 43.46875 28.1875 C 44.855469 27.417969 45.339844 25.707031 44.5625 24.3125 C 44.539063 24.269531 44.53125 24.226563 44.5 24.1875 L 40 18.375 C 39.980469 13.105469 38.3125 8.65625 35.1875 5.5 C 31.585938 1.859375 26.257813 0 19.3125 0 Z M 27.1875 17.5 L 34.90625 20.1875 C 34.207031 22.289063 31.789063 23.386719 29.6875 22.6875 C 27.585938 21.988281 26.488281 19.601563 27.1875 17.5 Z M 48.875 33 C 48.855469 33.007813 48.832031 33.019531 48.8125 33.03125 L 43.8125 34.03125 C 43.417969 34.042969 43.0625 34.285156 42.914063 34.652344 C 42.765625 35.019531 42.84375 35.441406 43.121094 35.726563 C 43.398438 36.011719 43.816406 36.105469 44.1875 35.96875 L 49.1875 34.96875 C 49.691406 34.84375 50.019531 34.355469 49.9375 33.839844 C 49.855469 33.328125 49.394531 32.960938 48.875 33 Z M 35.59375 34 L 36.25 34 L 36 35 L 30.875 35 C 31.828125 34.316406 33.324219 34 35.59375 34 Z M 41.8125 37 C 41.375 37.074219 41.039063 37.429688 40.988281 37.871094 C 40.941406 38.3125 41.183594 38.734375 41.59375 38.90625 L 48.59375 41.90625 C 48.925781 42.105469 49.339844 42.09375 49.660156 41.882813 C 49.980469 41.667969 50.152344 41.289063 50.097656 40.90625 C 50.042969 40.527344 49.773438 40.207031 49.40625 40.09375 L 42.40625 37.09375 C 42.222656 37.003906 42.015625 36.96875 41.8125 37 Z"/></svg>